<svg width="941" height="788" viewBox="0 0 941 788" fill="none" xmlns="http://www.w3.org/2000/svg">
<path d="M765.2 258.8C760 258.8 754.8 259 749.6 259.4C710.3 262.5 671.8 249 644.1 224C603.8 187.5 547.7 164.9 485.8 164.9C433.9 164.9 386.2 180.7 348.4 207.3C319.9 227.3 283.2 235.6 247.5 230.4C237.6 229 227.4 228.2 217.1 228.2C113.6 228.2 30.3 302.4 30.2 394.7C30.2 397 30.3 399.3 30.4 401.6C30.3 403.9 30.2 406.3 30.2 408.7C30.2 517.3 139.9 605.3 261.7 605.3C297.9 605.3 326.8 599.1 348.9 591.4C385.4 578.6 425.7 577.7 462.7 589.2C484.8 596.1 508.5 599.8 533.2 599.8C569.2 599.8 603 591.9 632.8 578C656.2 567 682.3 561.4 708.8 561.4H763C856.5 561.4 934.4 493.2 934.3 409.9C934.2 326.4 858.8 259.1 765.2 258.8Z" fill="white"/>
<path d="M261.7 611.7C201.5 611.7 141.2 590.2 96.2 552.6C49.5 513.7 23.8 462.5 23.8 408.7C23.8 406.3 23.9 404.1 24 401.6C23.9 399.4 23.8 397 23.8 394.7C23.9 348.2 44 304.6 80.6 272.1C117 239.7 165.5 221.8 217.1 221.8C227.2 221.8 237.8 222.6 248.4 224.1C282.6 229.1 317.7 221.1 344.7 202.1C385.2 173.6 434 158.5 485.8 158.5C547.4 158.5 605.1 180.1 648.4 219.3C675.4 243.7 712.1 256 749.1 253.1C754.5 252.7 759.9 252.5 765.2 252.5C812 252.7 856 269 889.1 298.5C922.3 328.2 940.7 367.8 940.7 410C940.7 448.3 924.8 485.4 895.9 514.4C861.9 548.4 813.5 567.9 763 567.9H708.8C683.1 567.9 657.8 573.4 635.5 583.9C603.6 598.8 569.2 606.3 533.2 606.3C508.3 606.3 483.9 602.6 460.8 595.4C425.4 584.4 386.4 585.1 351 597.5C323.9 606.9 293.8 611.7 261.7 611.7ZM217.1 234.6C168.6 234.6 123.2 251.3 89.1 281.6C55.3 311.7 36.6 351.9 36.6 394.7C36.6 396.9 36.7 399 36.8 401.3C36.8 401.5 36.8 401.7 36.8 401.9C36.7 404.3 36.6 406.5 36.6 408.7C36.6 458.7 60.7 506.3 104.4 542.8C147.1 578.4 204.5 598.9 261.7 598.9C292.4 598.9 321 594.3 346.8 585.4C384.7 572.1 426.5 571.3 464.6 583.1C486.5 589.9 509.6 593.4 533.2 593.4C567.3 593.4 599.9 586.3 630.1 572.2C654 561 681.3 555 708.8 555H763C810.1 555 855.2 536.9 886.8 505.2C913.3 478.6 927.9 444.8 927.9 409.9C927.9 371.4 911 335.2 880.6 307.9C849.9 280.5 808.9 265.3 765.2 265.2C760.2 265.2 755.1 265.4 750.1 265.8C709.6 269 669.4 255.5 639.8 228.8C598.9 191.8 544.2 171.4 485.8 171.4C436.7 171.4 390.4 185.7 352.1 212.6C322.4 233.4 284 242.2 246.6 236.8C236.6 235.3 226.6 234.6 217.1 234.6Z" fill="#D1C1FF"/>
<path d="M292.6 430.9C309.9 421.8 329.4 416 350.2 414.5C399.5 411 453.2 434.6 494.3 497.5" fill="white"/>
<path d="M494.3 503.8C492.2 503.8 490.2 502.8 489 501C440.1 426.2 381.3 418.7 350.6 420.8C331.2 422.2 312.6 427.5 295.5 436.5C292.4 438.1 288.6 436.9 287 433.9C285.4 430.8 286.6 427 289.6 425.4C308.3 415.6 328.5 409.8 349.7 408.3C376.5 406.4 403.7 412.4 428.3 425.6C455.4 440.2 479.4 463.3 499.6 494.1C501.5 497 500.7 500.9 497.8 502.8C496.7 503.5 495.5 503.8 494.3 503.8Z" fill="#D1C1FF"/>
<path d="M636.5 333.9C634.8 333.9 633.1 333.2 631.9 331.9C629.5 329.4 629.7 325.4 632.2 323C665.2 292.4 712.1 282.6 754.6 297.6C757.9 298.8 759.6 302.3 758.4 305.6C757.2 308.9 753.7 310.6 750.4 309.4C712.4 296 670.3 304.7 640.8 332.2C639.6 333.3 638 333.9 636.5 333.9Z" fill="#D1C1FF"/>
<path d="M219.9 458.2C218.2 458.2 216.5 457.5 215.3 456.2C212.9 453.7 213.1 449.7 215.6 447.3C248.1 417.2 282.6 414.7 324.2 439.5C327.2 441.3 328.2 445.1 326.4 448.1C324.6 451.1 320.8 452.1 317.8 450.3C280.7 428.2 252.7 430.1 224.2 456.5C223 457.6 221.4 458.2 219.9 458.2Z" fill="#D1C1FF"/>
<path d="M123.3 671.6C121.9 674.8 118.1 676.2 115 674.8C78.2 658.3 35.7 663.4 3.9 688.2C2.7 689.1 1.4 689.5 0 689.5V675.4C35 650.2 80.6 645.5 120.2 663.3C123.3 664.7 124.8 668.4 123.3 671.6Z" fill="#D1C1FF"/>
<path d="M870.6 258.6C872.864 258.6 874.7 256.764 874.7 254.5C874.7 252.236 872.864 250.4 870.6 250.4C868.336 250.4 866.5 252.236 866.5 254.5C866.5 256.764 868.336 258.6 870.6 258.6Z" fill="#E8E0FF"/>
<path d="M893.1 787.5C890.9 787.5 889.1 785.7 889.1 783.5V661.2C889.1 659 890.9 657.2 893.1 657.2C895.3 657.2 897.1 659 897.1 661.2V783.5C897.1 785.7 895.3 787.5 893.1 787.5Z" fill="#FFBFD5"/>
<path d="M893.1 702.4C892.9 702.4 892.7 702.4 892.4 702.3C890.2 701.9 888.8 699.9 889.1 697.7C891.6 683 904.6 672.8 919.4 674C921.6 674.2 923.2 676.1 923.1 678.3C922.9 680.5 921 682.2 918.8 682C908.2 681.2 898.8 688.5 897.1 699.1C896.7 701 895 702.4 893.1 702.4Z" fill="#FFBFD5"/>
<path d="M893.1 702.4C891.2 702.4 889.5 701 889.2 699.1C887.4 688.5 878.1 681.2 867.5 682C865.3 682.2 863.4 680.5 863.2 678.3C863 676.1 864.7 674.2 866.9 674C881.7 672.8 894.7 683 897.2 697.7C897.6 699.9 896.1 701.9 893.9 702.3C893.5 702.4 893.3 702.4 893.1 702.4Z" fill="#FFBFD5"/>
<path d="M893.1 731.1C892.9 731.1 892.7 731.1 892.4 731C890.2 730.6 888.8 728.6 889.1 726.4C891.6 711.7 904.6 701.5 919.4 702.7C921.6 702.9 923.2 704.8 923.1 707C922.9 709.2 921 710.9 918.8 710.7C908.2 709.9 898.8 717.2 897.1 727.8C896.7 729.7 895 731.1 893.1 731.1Z" fill="#FFBFD5"/>
<path d="M893.1 731.1C891.2 731.1 889.5 729.7 889.2 727.8C887.4 717.2 878.1 709.9 867.5 710.7C865.3 710.9 863.4 709.2 863.2 707C863 704.8 864.7 702.9 866.9 702.7C881.7 701.5 894.7 711.7 897.2 726.4C897.6 728.6 896.1 730.6 893.9 731C893.5 731.1 893.3 731.1 893.1 731.1Z" fill="#FFBFD5"/>
<path d="M893.1 759.9C892.9 759.9 892.7 759.9 892.4 759.8C890.2 759.4 888.8 757.4 889.1 755.2C891.6 740.5 904.6 730.3 919.4 731.5C921.6 731.7 923.2 733.6 923.1 735.8C922.9 738 921 739.7 918.8 739.5C908.2 738.7 898.8 746 897.1 756.6C896.7 758.5 895 759.9 893.1 759.9Z" fill="#FFBFD5"/>
<path d="M893.1 759.9C891.2 759.9 889.5 758.5 889.2 756.6C887.4 746 878.1 738.7 867.5 739.5C865.3 739.7 863.4 738 863.2 735.8C863 733.6 864.7 731.7 866.9 731.5C881.7 730.3 894.7 740.5 897.2 755.2C897.6 757.4 896.1 759.4 893.9 759.8C893.5 759.9 893.3 759.9 893.1 759.9Z" fill="#FFBFD5"/>
<path d="M181.1 786.7C178.9 786.7 177.1 784.9 177.1 782.7V698.4C177.1 696.2 178.9 694.4 181.1 694.4C183.3 694.4 185.1 696.2 185.1 698.4V782.7C185.1 784.9 183.3 786.7 181.1 786.7Z" fill="#FFBFD5"/>
<path d="M181.1 741.1C180.9 741.1 180.7 741.1 180.4 741C178.2 740.6 176.8 738.6 177.1 736.4C179.6 721.7 192.6 711.5 207.4 712.7C209.6 712.9 211.2 714.8 211.1 717C210.9 719.2 209 720.9 206.8 720.7C196.2 719.9 186.8 727.2 185.1 737.8C184.7 739.7 183 741.1 181.1 741.1Z" fill="#FFBFD5"/>
<path d="M181.1 741.1C179.2 741.1 177.5 739.7 177.2 737.8C175.4 727.2 166.1 719.9 155.5 720.7C153.3 720.9 151.4 719.2 151.2 717C151 714.8 152.7 712.9 154.9 712.7C169.7 711.5 182.7 721.7 185.2 736.4C185.6 738.6 184.1 740.6 181.9 741C181.5 741.1 181.3 741.1 181.1 741.1Z" fill="#FFBFD5"/>
<path d="M181.1 769.9C180.9 769.9 180.7 769.9 180.4 769.8C178.2 769.4 176.8 767.4 177.1 765.2C179.6 750.5 192.6 740.3 207.4 741.5C209.6 741.7 211.2 743.6 211.1 745.8C210.9 748 209 749.7 206.8 749.5C196.2 748.7 186.8 756 185.1 766.6C184.7 768.5 183 769.9 181.1 769.9Z" fill="#FFBFD5"/>
<path d="M181.1 769.9C179.2 769.9 177.5 768.5 177.2 766.6C175.4 756 166.1 748.7 155.5 749.5C153.3 749.7 151.4 748 151.2 745.8C151 743.6 152.7 741.7 154.9 741.5C169.7 740.3 182.7 750.5 185.2 765.2C185.6 767.4 184.1 769.4 181.9 769.8C181.5 769.9 181.3 769.9 181.1 769.9Z" fill="#FFBFD5"/>
<path d="M91.3 786.7C89.1 786.7 87.3 784.9 87.3 782.7V722.3C87.3 720.1 89.1 718.3 91.3 718.3C93.5 718.3 95.3 720.1 95.3 722.3V782.7C95.3 784.9 93.5 786.7 91.3 786.7Z" fill="#FFBFD5"/>
<path d="M91.3 769.9C91.1 769.9 90.9 769.9 90.6 769.8C88.4 769.4 87 767.4 87.3 765.2C89.8 750.5 102.8 740.3 117.6 741.5C119.8 741.7 121.4 743.6 121.3 745.8C121.1 748 119.2 749.7 117 749.5C106.4 748.7 97 756 95.3 766.6C94.9 768.5 93.2 769.9 91.3 769.9Z" fill="#FFBFD5"/>
<path d="M91.3 769.9C89.4 769.9 87.7 768.5 87.4 766.6C85.6 756 76.3 748.7 65.7 749.5C63.5 749.7 61.6 748 61.4 745.8C61.2 743.6 62.9 741.7 65.1 741.5C79.9 740.3 92.9 750.5 95.4 765.2C95.8 767.4 94.3 769.4 92.1 769.8C91.7 769.9 91.5 769.9 91.3 769.9Z" fill="#FFBFD5"/>
<path d="M460.7 124.1C359.4 175.2 355.6 108.8 275.8 120.6C234.1 126.8 330.9 63.9999 330.9 63.9999L410.6 47.8999L464 52.2999L460.7 124.1Z" fill="#3A208A"/>
<path d="M629 267.6L577.7 356.6C570.7 378.4 547.4 390.4 525.6 383.5C515.8 380.4 508 373.9 502.9 365.8L500.6 362.1L433.6 233C421 212.5 427.4 185.7 447.9 173.1C468.4 160.5 495.2 166.9 507.8 187.4L574.8 316.5L497.8 321.9L573.9 230.6" fill="url(#paint0_linear)"/>
<path d="M574 230.7L586.6 216.5C598.1 203.5 618 202.3 631.1 213.8C642.5 223.9 644.8 240.4 637.5 253.1L629.1 267.6L574 230.7Z" fill="#FDC068"/>
<path d="M829.2 723.5L720.9 698.3C712.7 693.4 711 690.6 705.9 679.8L699.8 668.3L792.9 682.5L837.6 712.8C844 718.1 836.8 727.2 829.2 723.5Z" fill="#9876FC"/>
<path d="M709.2 402.6C735 492.7 786.2 670.7 792.9 682.5L699.8 668.4L602.1 417.7L391.3 349.6L513.8 311.2L641.9 340.2C674.3 346.9 700.1 370.9 709.2 402.6Z" fill="url(#paint1_linear)"/>
<path d="M513.7 313.8C517 270 488.2 269.1 501.5 240.8C514.7 212.5 505.2 169.9 473.2 166.7C448.5 164.2 446.9 163 436.5 161.9C403.6 158.6 371.3 185.4 378.2 219.4C378.2 219.4 387.1 233.2 386.2 243.1C385.3 253 361 265.3 358.7 295.4L513.7 313.8Z" fill="url(#paint2_linear)"/>
<path d="M513.7 315.2H513.6C512.8 315.1 512.3 314.5 512.3 313.7C513.9 292.5 507.8 281.4 502.8 272.5C501.1 269.4 499.4 266.5 498.3 263.4C498 262.7 498.4 261.9 499.1 261.6C499.8 261.3 500.6 261.7 500.9 262.4C502 265.3 503.6 268.1 505.3 271.1C510.4 280.3 516.8 291.8 515.1 313.9C515 314.6 514.4 315.2 513.7 315.2Z" fill="#2B2B2B"/>
<path d="M477.1 325.9L582.1 376.6C608.2 389.2 624.1 416.2 622.3 445.1C617.1 532.6 606.6 710.1 606 714L528.5 684.6L502.4 451.9L368.4 347.1L477.1 325.9Z" fill="url(#paint3_linear)"/>
<path d="M359.3 290.7C355.5 313.8 360.4 351.5 404.4 357.1L440.1 360.6C480.2 365.7 509.8 336 513.9 311.1L359.3 290.7Z" fill="url(#paint4_linear)"/>
<path d="M449.6 180.9L393.1 172.7C393.1 172.7 416.7 160.9 432.5 160.9L449.6 180.9Z" fill="#2B2B2B"/>
<path d="M418.1 464.3C415.9 463.3 413.7 462.2 411.5 461.2C405.5 458.4 363.3 431.1 329.9 409.4C305.4 393.5 294.9 363 304.3 335.4C321.3 285.6 356.4 210.9 358.3 207.5L362.5 199.8C363.8 197.5 365.1 195.2 366.4 193C378.7 172 406.4 164.5 427.2 177.2C445.4 188.3 452.7 210.8 445.2 230.1C444.1 232.8 443 235.6 441.9 238.3L438.5 246.4C436.2 251.8 433.8 257.2 431.4 262.5C426.5 273.2 388.5 338.3 388.5 338.3C388.5 338.3 452 401.9 453.1 402.8" fill="url(#paint5_linear)"/>
<path d="M453 402.7C456.3 405.4 459.6 408 462.8 410.8L469.2 416.2C471.3 418.1 473.4 419.9 475.5 421.8C488.5 433.7 489.3 453.9 477.4 466.8C468.2 476.8 454 479.6 442.1 474.9C439.5 473.9 436.9 472.7 434.4 471.6L426.7 468.2C423.8 466.9 421 465.6 418.1 464.3" fill="#FDC068"/>
<path d="M636.1 767.1L527.8 717.3C521.4 714.2 518.7 706.7 521.6 700.2L528.6 684.6L606.1 714L643.2 756.1C649.1 761 643.1 770.4 636.1 767.1Z" fill="#9876FC"/>
<path d="M492.8 135.1L464.9 129.6C450.5 126.7 441.1 112.7 443.9 98.2999L452.2 56.1999C456.8 33.0999 479.2 17.9999 502.3 22.5999C525.4 27.1999 540.5 49.5999 535.9 72.6999L528.3 111.3C525.1 127.7 509.2 138.3 492.8 135.1Z" fill="#FDC068"/>
<path d="M534.4 80.2L532.6 89.3999C530.9 88.6999 529.7 87 529.7 85C529.7 82.4 531.8 80.2 534.4 80.2Z" fill="#2B2B2B"/>
<path d="M465.5 190.8L437.2 171.8C434 169.6 432.3 165.8 433 161.9L443.6 99.4C448.1 89.6 491.3 98.9 491.3 98.9L484.1 180.8C483.3 189.8 473.5 195.1 465.5 190.8Z" fill="#FDC068"/>
<path d="M520.4 97C519.8 97 519.3 96.5999 519.1 96.0999C518.9 95.3999 519.2 94.5999 519.9 94.2999L524.1 92.7999C524.5 92.5999 524.8 92.1999 525 91.7999C525.2 91.2999 525.1 90.7999 524.9 90.2999L520.4 82.0999C520 81.3999 520.3 80.6 520.9 80.2C521.6 79.8 522.4 80.1 522.8 80.7L527.3 88.9C527.9 90 528.1 91.2999 527.7 92.5999C527.3 93.7999 526.5 94.7999 525.3 95.2999L525.2 95.4L520.9 96.9C520.7 97 520.5 97 520.4 97Z" fill="#2B2B2B"/>
<path d="M514 111.9C513.9 111.9 513.8 111.9 513.7 111.9C511 111.8 508.4 110.2 506.1 107.1C505.6 106.5 505.8 105.6 506.4 105.2C507 104.7 507.9 104.9 508.3 105.5C510.1 107.9 511.9 109.1 513.8 109.2C516.4 109.3 518.4 107.2 518.4 107.1C518.9 106.5 519.8 106.5 520.3 107C520.9 107.5 520.9 108.4 520.4 108.9C520.3 109 517.7 111.9 514 111.9Z" fill="#2B2B2B"/>
<path d="M488.3 134.1L470.8 128.5L486.7 152L488.3 134.1Z" fill="#2B2B2B"/>
<path d="M507.3 84.6C509.951 84.6 512.1 82.451 512.1 79.8C512.1 77.149 509.951 75 507.3 75C504.649 75 502.5 77.149 502.5 79.8C502.5 82.451 504.649 84.6 507.3 84.6Z" fill="#2B2B2B"/>
<path d="M497.1 18.7C497.4 31.4 528.3 62.0999 536.8 65.5999C536.7 65.6999 547.1 28.4 497.1 18.7Z" fill="#4B2CAA"/>
<path d="M610 232.3L585.8 225.6C581.3 224.4 578.7 219.7 580 215.3L602.4 135.1C603.6 130.6 608.3 128 612.7 129.3L636.9 136C641.4 137.2 644 141.9 642.7 146.3L620.3 226.5C619.1 230.9 614.5 233.5 610 232.3Z" fill="#D1C2FF"/>
<path d="M622.8 465.7C622 465.7 621.4 465.1 621.3 464.3L620.1 438.5C618.9 411.9 603.4 388 579.6 376L532.4 352.4C531.7 352 531.4 351.1 531.7 350.4C532.1 349.7 532.9 349.4 533.7 349.7L580.9 373.3C605.7 385.7 621.8 410.6 623 438.3L624.2 464.1C624.3 464.9 623.7 465.6 622.8 465.7Z" fill="#2B2B2B"/>
<path d="M388.4 339.7C388.1 339.7 387.9 339.6 387.7 339.5C387 339.1 386.8 338.2 387.2 337.5L410.7 296.9C411.1 296.2 412 296 412.7 296.4C413.4 296.8 413.6 297.7 413.2 298.4L389.7 339C389.4 339.4 388.9 339.7 388.4 339.7Z" fill="#2B2B2B"/>
<path d="M533.1 281.2C532.8 281.2 532.4 281.1 532.2 280.9C531.6 280.4 531.5 279.4 532 278.8L546 262C546.5 261.4 547.5 261.3 548.1 261.8C548.7 262.3 548.8 263.3 548.3 263.9L534.3 280.7C533.9 281 533.5 281.2 533.1 281.2Z" fill="#2B2B2B"/>
<path d="M628.519 166.902C630.038 161.42 627.991 156.067 623.946 154.946C619.901 153.825 615.39 157.36 613.871 162.842C612.351 168.324 614.398 173.677 618.443 174.798C622.488 175.919 626.999 172.384 628.519 166.902Z" fill="#BCA6FF"/>
<path d="M622.8 215.1C622.8 215.1 599.7 204.4 585.9 230.8L609.6 237.8L622.8 236.4V215.1V215.1Z" fill="#FDC068"/>
<path d="M46.1 642.9C48.3644 642.9 50.2 641.065 50.2 638.8C50.2 636.536 48.3644 634.7 46.1 634.7C43.8356 634.7 42 636.536 42 638.8C42 641.065 43.8356 642.9 46.1 642.9Z" fill="#E8E0FF"/>
<path d="M128.2 209.9C130.464 209.9 132.3 208.064 132.3 205.8C132.3 203.536 130.464 201.7 128.2 201.7C125.936 201.7 124.1 203.536 124.1 205.8C124.1 208.064 125.936 209.9 128.2 209.9Z" fill="#F1EDFF"/>
<path d="M772.6 99.8001C774.864 99.8001 776.7 97.9645 776.7 95.7001C776.7 93.4357 774.864 91.6001 772.6 91.6001C770.336 91.6001 768.5 93.4357 768.5 95.7001C768.5 97.9645 770.336 99.8001 772.6 99.8001Z" fill="#E8E0FF"/>
<path d="M790 612.9C792.099 612.9 793.8 611.198 793.8 609.1C793.8 607.001 792.099 605.3 790 605.3C787.901 605.3 786.2 607.001 786.2 609.1C786.2 611.198 787.901 612.9 790 612.9Z" fill="#BFD9FF"/>
<path d="M502.5 25.2C488.5 3.40002 455.6 5.30002 425.9 14.9C394 25.2 377.4 10.1 356.9 3.50002C321.3 -7.99998 286.9 22.4 263.1 23.9C239.4 25.4 207.7 -5.79998 157.9 2.30002C50.4 19.9 80.4 179.2 209.3 146.7C238.7 139.3 234.8 125.6 270.1 127.6C320.1 130.4 353.7 93.4 401.7 110.6C450.6 128 527.4 64 502.5 25.2Z" fill="#4527A0"/>
<path d="M502.4 453.4C501.7 453.4 501.1 452.9 501 452.3L495.7 429.2C495.5 428.4 496 427.6 496.8 427.4C497.6 427.2 498.4 427.7 498.6 428.5L503.9 451.6C504.1 452.4 503.6 453.2 502.8 453.4C502.6 453.4 502.5 453.4 502.4 453.4Z" fill="#2B2B2B"/>
<defs>
<linearGradient id="paint0_linear" x1="528.071" y1="379.4" x2="528.071" y2="180.4" gradientUnits="userSpaceOnUse">
<stop stop-color="#FFE0C2"/>
<stop offset="0.401" stop-color="#9876FF"/>
<stop offset="0.5908" stop-color="#B49BFF"/>
<stop offset="1" stop-color="#D6C9FF"/>
</linearGradient>
<linearGradient id="paint1_linear" x1="592.1" y1="323.347" x2="592.1" y2="666.667" gradientUnits="userSpaceOnUse">
<stop stop-color="#FF4081"/>
<stop offset="0.401" stop-color="#FF7AA8"/>
<stop offset="0.5908" stop-color="#E89AC0"/>
<stop offset="1" stop-color="#EEEEEE"/>
</linearGradient>
<linearGradient id="paint2_linear" x1="426.193" y1="366.259" x2="462.706" y2="178.737" gradientUnits="userSpaceOnUse">
<stop stop-color="#FFE0C2"/>
<stop offset="0.401" stop-color="#9471FF"/>
<stop offset="0.5908" stop-color="#B59DFF"/>
<stop offset="1" stop-color="#D6C9FF"/>
</linearGradient>
<linearGradient id="paint3_linear" x1="495.419" y1="311.898" x2="495.419" y2="683.326" gradientUnits="userSpaceOnUse">
<stop stop-color="#FF4383"/>
<stop offset="0.401" stop-color="#FF7AA8"/>
<stop offset="0.5908" stop-color="#E89AC0"/>
<stop offset="1" stop-color="#EEEEEE"/>
</linearGradient>
<linearGradient id="paint4_linear" x1="436.745" y1="300.092" x2="361.509" y2="724.363" gradientUnits="userSpaceOnUse">
<stop stop-color="#FF4081"/>
<stop offset="0.401" stop-color="#FF7AA8"/>
<stop offset="0.5908" stop-color="#E89AC0"/>
<stop offset="1" stop-color="#EEEEEE"/>
</linearGradient>
<linearGradient id="paint5_linear" x1="376.994" y1="383.4" x2="376.994" y2="185.148" gradientUnits="userSpaceOnUse">
<stop stop-color="#FFE0C2"/>
<stop offset="0.401" stop-color="#926EFF"/>
<stop offset="0.5908" stop-color="#AF95FF"/>
<stop offset="1" stop-color="#D6C9FF"/>
</linearGradient>
</defs>
</svg>
